<svg width="30" height="32" viewBox="0 0 30 32" fill="none" xmlns="http://www.w3.org/2000/svg"><path d="M29.72 16.18a.608.608 0 00-.58-.043 3.653 3.653 0 01-4.8-1.74.608.608 0 00-.55-.347h-.42V7.48a.608.608 0 00-.607-.608H19V5.357C19 2.403 16.586 0 13.617 0c-.68 0-1.332.126-1.932.356A5.38 5.38 0 009.754 0C6.784 0 4.37 2.403 4.37 5.357V6.87H.608A.608.608 0 000 7.479v19.643a2.896 2.896 0 002.895 2.891H19.87a.606.606 0 00.113-.01 13.107 13.107 0 002.657 1.1.608.608 0 00.31 0 13.285 13.285 0 003.476-1.588C28.764 27.993 30 25.971 30 23.669V16.69c0-.207-.105-.4-.28-.51zm-7.565-8.093v5.963h-.357a.608.608 0 00-.548.347 3.654 3.654 0 01-4.8 1.74.608.608 0 00-.861.553v6.979c0 1.957.893 3.711 2.598 5.128H4.977V8.087h3.256v3.13a.608.608 0 001.216 0v-3.13h8.336v3.13a.608.608 0 001.216 0v-3.13h3.154zm-10.47-6.4a4.142 4.142 0 012.237 3.67V6.87H9.449V5.357c0-1.591.908-2.976 2.236-3.67zm1.932-.471c2.298 0 4.168 1.857 4.168 4.14v1.515h-2.647V5.357a5.338 5.338 0 00-1.947-4.12 4.23 4.23 0 01.426-.021zm-3.863 0c.143 0 .285.007.425.021a5.338 5.338 0 00-1.946 4.12V6.87H5.585V5.357c0-2.284 1.87-4.141 4.169-4.141zM1.216 27.122V8.087h2.546v20.71h-.867a1.68 1.68 0 01-1.68-1.675zm27.568-3.453c0 1.89-1.008 3.508-2.997 4.81a12.43 12.43 0 01-2.992 1.402 12.422 12.422 0 01-2.993-1.401c-1.989-1.303-2.997-2.922-2.997-4.811v-6.127a4.88 4.88 0 005.36-2.277h1.26a4.88 4.88 0 005.36 2.277v6.127z" fill="#E0191C"/><path d="M25.405 20.644a.608.608 0 00-.856.073l-2.01 2.382-.75-.745a.608.608 0 10-.857.862l1.217 1.21a.608.608 0 00.893-.038l2.436-2.888a.608.608 0 00-.073-.856z" fill="#E0191C"/></svg>