<svg width="30" height="25" viewBox="0 0 30 25" fill="none" xmlns="http://www.w3.org/2000/svg"><path d="M10.476 15.083H5.941a.586.586 0 100 1.171h4.535a.586.586 0 100-1.171zm-1.42 3.147H5.941a.586.586 0 100 1.172h3.115a.586.586 0 100-1.172z" fill="#E0191C"/><path d="M24.405 8.286V6.424h.22a.586.586 0 00.586-.586V.586A.586.586 0 0024.626 0H.585A.586.586 0 000 .586v5.252c0 .324.262.586.586.586h.22v15.943c0 1.032.835 1.87 1.861 1.87h19.877c1.026 0 1.86-.838 1.86-1.87v-1.634C27.54 20.428 30 17.753 30 14.509s-2.46-5.919-5.595-6.223zm-8.19-7.114h7.825v4.08h-7.824v-4.08zm-6.047 0h4.876v7.866l-2.232-.84a.586.586 0 00-.413 0l-2.231.84V1.172zm-8.996 4.08v-4.08h7.824v4.08H1.172zm22.06 17.115a.694.694 0 01-.688.699H2.667a.694.694 0 01-.688-.699V6.424h7.017v3.46a.586.586 0 00.792.55l2.818-1.061 2.817 1.06a.586.586 0 00.793-.548V6.424h7.017v1.86c-3.147.293-5.62 2.973-5.62 6.225 0 3.253 2.473 5.933 5.62 6.226v1.632zm.575-2.777c-2.77 0-5.022-2.28-5.022-5.08 0-2.802 2.253-5.081 5.022-5.081s5.021 2.279 5.021 5.08c0 2.802-2.252 5.08-5.021 5.08z" fill="#E0191C"/><path d="M25.777 12.536a.586.586 0 00-.825.074l-1.615 1.933-.56-.563a.586.586 0 00-.83.827l1.013 1.017a.586.586 0 00.865-.038l2.026-2.425a.586.586 0 00-.074-.825z" fill="#E0191C"/></svg>