<svg width="30" height="29" viewBox="0 0 30 29" fill="none" xmlns="http://www.w3.org/2000/svg"><path d="M11.146 15.873a.586.586 0 00-.586.586v.737H4.972v-.737a.586.586 0 10-1.172 0v1.323c0 .323.263.586.586.586h6.76a.586.586 0 00.586-.586v-1.323a.586.586 0 00-.586-.585z" fill="#E0191C"/><path d="M28.282 13.484h-5.578c.058-.172.089-.356.089-.547V1.719c0-.948-.771-1.719-1.72-1.719H8.927c-.948 0-1.719.771-1.719 1.72v11.217c0 .191.031.375.09.547h-5.58c-.948 0-1.719.772-1.719 1.72V26.42c0 .948.771 1.72 1.72 1.72h12.147c.433 0 .83-.162 1.133-.428.302.266.699.428 1.132.428h12.15c.947 0 1.718-.772 1.718-1.721V15.205c0-.948-.77-1.72-1.718-1.72zM8.38 12.937V1.719c0-.302.245-.547.547-.547h12.148c.301 0 .547.245.547.547v11.218a.548.548 0 01-.547.547h-2.12V9.077a.586.586 0 00-.586-.586h-6.803a.586.586 0 00-.586.586v4.407H8.926a.548.548 0 01-.547-.547zm3.772.547V9.663h5.63v3.821h-5.63zM4.944 26.966V22.94h5.63v4.025h-5.63zm9.47-.545a.548.548 0 01-.547.548h-2.12v-4.614a.586.586 0 00-.586-.585H4.358a.586.586 0 00-.586.585v4.614H1.719a.548.548 0 01-.547-.548V15.204c0-.302.245-.548.547-.548h12.148c.301 0 .547.246.547.548V26.42zm4.944-3.482h5.63v4.03h-5.63v-4.03zm9.47 3.48c0 .303-.245.55-.546.55h-2.121v-4.616a.586.586 0 00-.586-.586h-6.803a.586.586 0 00-.586.586v4.616h-2.054a.548.548 0 01-.546-.55V15.207c0-.303.245-.55.546-.55h12.15c.301 0 .546.247.546.55V26.42z" fill="#E0191C"/><path d="M25.56 15.873a.586.586 0 00-.585.586v.737h-5.589v-.737a.586.586 0 10-1.171 0v1.323c0 .323.262.586.585.586h6.76a.586.586 0 00.586-.586v-1.323a.586.586 0 00-.585-.585zM11.593 4.883h6.76a.586.586 0 00.586-.586V2.975a.586.586 0 00-1.172 0v.736H12.18v-.736a.586.586 0 00-1.172 0v1.322c0 .324.263.586.586.586z" fill="#E0191C"/></svg>