<svg width="30" height="28" viewBox="0 0 30 28" fill="none" xmlns="http://www.w3.org/2000/svg"><path d="M11.575 18.419a4.351 4.351 0 00-4.346-4.347 4.351 4.351 0 00-4.346 4.347 4.351 4.351 0 004.346 4.346 4.352 4.352 0 004.346-4.346zm-7.52 0a3.178 3.178 0 013.174-3.175 3.178 3.178 0 013.174 3.175 3.178 3.178 0 01-3.174 3.174 3.178 3.178 0 01-3.174-3.174zM24.495 6.68a4.04 4.04 0 00-4.035-4.035 4.04 4.04 0 00-4.036 4.036 4.04 4.04 0 004.036 4.036 4.04 4.04 0 004.035-4.036zm-6.899 0a2.867 2.867 0 012.864-2.863 2.867 2.867 0 012.863 2.864 2.867 2.867 0 01-2.863 2.864 2.867 2.867 0 01-2.864-2.864z" fill="#E0191C"/><path d="M18.983 19.005H27.6c1.323 0 2.4-1.077 2.4-2.4 0-1.324-1.076-2.4-2.4-2.4h-6.066l.696-1.08a6.715 6.715 0 003.444-2.267A6.7 6.7 0 0027.14 6.68 6.688 6.688 0 0020.46 0a6.688 6.688 0 00-6.68 6.68 6.7 6.7 0 001.466 4.178 6.716 6.716 0 003.444 2.267l1.273 1.976c.105.17.295.276.497.276h7.14a1.23 1.23 0 010 2.456h-8.617a2.469 2.469 0 00-2.466 2.466c0 .659.256 1.278.722 1.744a2.449 2.449 0 001.744.722h6.173a1.96 1.96 0 011.954 1.966v.064c0 .502-.196.974-.55 1.329a1.87 1.87 0 01-1.328.55l-16.929-.001.822-1.276a7.266 7.266 0 003.746-2.458 7.25 7.25 0 001.587-4.52c0-3.987-3.243-7.23-7.229-7.23S0 14.432 0 18.419a7.25 7.25 0 001.587 4.52 7.266 7.266 0 003.746 2.458l1.4 2.172a.587.587 0 00.496.276H25.23a3.03 3.03 0 002.157-.893 3.03 3.03 0 00.894-2.157v-.064c0-.84-.325-1.628-.915-2.22a3.1 3.1 0 00-2.21-.918h-6.175c-.345 0-.67-.134-.915-.378a1.296 1.296 0 01.915-2.21zm.21-6.961A5.485 5.485 0 0114.95 6.68a5.515 5.515 0 015.509-5.51 5.515 5.515 0 015.508 5.51 5.485 5.485 0 01-4.24 5.362.586.586 0 00-.36.254l-.908 1.411-.91-1.411a.586.586 0 00-.358-.254zM5.834 24.315a6.032 6.032 0 01-4.663-5.896 6.064 6.064 0 016.057-6.058 6.064 6.064 0 016.057 6.058 6.032 6.032 0 01-4.663 5.896.586.586 0 00-.359.254L7.23 26.176 6.194 24.57a.586.586 0 00-.359-.253z" fill="#E0191C"/></svg>