<svg width="30" height="21" viewBox="0 0 30 21" fill="none" xmlns="http://www.w3.org/2000/svg"><path d="M15.392 0h-3.049a.586.586 0 00-.586.586v19.41c0 .324.263.586.586.586h3.049a.586.586 0 00.585-.586V.586A.586.586 0 0015.392 0zm-.586 19.41h-1.877V1.172h1.877V19.41zM10.04 0H7.578a.586.586 0 00-.586.586v19.41c0 .324.262.586.586.586h2.462a.586.586 0 00.586-.586V.586A.586.586 0 0010.04 0zm-.586 19.41h-1.29V1.172h1.29V19.41zM3.048 0H.586A.586.586 0 000 .586v19.41c0 .324.262.586.586.586h2.462a.586.586 0 00.586-.586V.586A.586.586 0 003.048 0zm-.586 19.41h-1.29V1.172h1.29V19.41zM5.275 0a.586.586 0 00-.586.586v19.41a.586.586 0 101.172 0V.586A.586.586 0 005.275 0zm24.553 19.966l-3.216-3.217a5.757 5.757 0 001.305-3.667c0-1.55-.603-3.006-1.699-4.102a5.767 5.767 0 00-2.586-1.5V.586a.586.586 0 00-1.172 0V7.29a5.932 5.932 0 00-1.131.043V.586A.586.586 0 0020.743 0h-3.048a.586.586 0 00-.586.586v9.49c0 .022.001.044.004.066a5.765 5.765 0 00-.798 2.94 5.76 5.76 0 00.794 2.933v3.981c0 .324.262.586.586.586h3.048a.586.586 0 00.586-.586V18.83a5.876 5.876 0 001.131.043v1.123a.586.586 0 001.172 0v-1.312a5.743 5.743 0 002.151-1.106L29 20.794a.584.584 0 00.828 0 .586.586 0 000-.828zM20.157 1.172v6.447c-.685.245-1.32.62-1.876 1.111V1.172h1.876zm0 18.238H18.28v-1.976a5.761 5.761 0 001.876 1.111v.865zm-1.314-3.055a4.599 4.599 0 01-1.356-3.273 4.6 4.6 0 011.356-3.273 4.599 4.599 0 013.273-1.356 4.6 4.6 0 013.274 1.356 4.599 4.599 0 011.355 3.273 4.599 4.599 0 01-1.355 3.273 4.599 4.599 0 01-3.274 1.356 4.599 4.599 0 01-3.273-1.356z" fill="#E0191C"/><path d="M24.13 11.514a.586.586 0 00-.825.07l-1.481 1.755-.495-.492a.586.586 0 10-.826.832l.945.939a.586.586 0 00.861-.038l1.892-2.24a.586.586 0 00-.07-.826z" fill="#E0191C"/></svg>