<svg width="30" height="32" viewBox="0 0 30 32" fill="none" xmlns="http://www.w3.org/2000/svg"><path d="M29.377 17.494H28.13v-3.71a2.22 2.22 0 00-1.793-2.176l1.037-1.035c.358-.358.555-.834.555-1.34a1.88 1.88 0 00-.555-1.34L20.029.553a1.899 1.899 0 00-2.68 0L6.326 11.569H2.217A2.219 2.219 0 000 13.784v15.922c0 1.221.995 2.215 2.217 2.215h23.695a2.22 2.22 0 002.218-2.215v-3.71h1.247c.344 0 .623-.28.623-.624v-7.255a.623.623 0 00-.623-.623zM18.23 1.436a.65.65 0 01.918 0l7.345 7.339a.643.643 0 010 .916l-1.879 1.877h-2.185l.795-.795a.623.623 0 000-.882.924.924 0 01-.273-.658c0-.249.097-.483.273-.659a.624.624 0 000-.882L20.23 4.7a.623.623 0 00-.882 0 .934.934 0 01-1.318 0 .624.624 0 00-.882 0l-6.873 6.868H8.09L18.23 1.436zm3.735 8.832l-1.3 1.3H12.04l5.613-5.61a2.19 2.19 0 002.072 0l2.24 2.24c-.17.314-.26.667-.26 1.035 0 .367.09.72.26 1.035zM1.247 29.706V13.784a.97.97 0 01.97-.97h1.64v17.86h-1.64a.97.97 0 01-.97-.968zm25.636 0a.97.97 0 01-.97.968H5.102v-17.86h20.81a.97.97 0 01.97.97v3.71h-4.727a4.256 4.256 0 00-4.25 4.25 4.256 4.256 0 004.25 4.251h4.727v3.71zm1.87-4.958h-6.597a3.007 3.007 0 01-3.004-3.004 3.007 3.007 0 013.004-3.003h6.597v6.007z" fill="#E0191C"/><path d="M20.5 21.744c0 1.143.93 2.072 2.073 2.072 1.142 0 2.072-.93 2.072-2.072s-.93-2.071-2.072-2.071c-1.143 0-2.073.93-2.073 2.072zm2.073-.824c.455 0 .825.37.825.824a.826.826 0 01-1.651 0c0-.454.37-.824.826-.824z" fill="#E0191C"/></svg>