<svg width="8" height="5" viewBox="0 0 8 5" fill="none" xmlns="http://www.w3.org/2000/svg">
<path d="M8 0.713058C8 0.64433 7.96793 0.56701 7.91984 0.515464L7.51904 0.0859103C7.47094 0.0343641 7.3988 0 7.33467 0C7.27054 0 7.1984 0.0343641 7.1503 0.0859103L4 3.4622L0.849699 0.0859103C0.801603 0.0343641 0.729459 0 0.665331 0C0.593186 0 0.529058 0.0343641 0.480962 0.0859103L0.0801603 0.515464C0.0320641 0.56701 0 0.64433 0 0.713058C0 0.781787 0.0320641 0.859106 0.0801603 0.910653L3.81563 4.91409C3.86373 4.96564 3.93587 5 4 5C4.06413 5 4.13627 4.96564 4.18437 4.91409L7.91984 0.910653C7.96793 0.859106 8 0.781787 8 0.713058Z" fill="black"/>
</svg>
