<svg width="21" height="17" viewBox="0 0 21 17" xmlns="http://www.w3.org/2000/svg"><path d="M20.836 2.425a.824.824 0 00-.656-.324H4.728L4.278.582A.819.819 0 003.49 0H.82A.815.815 0 000 .81c0 .447.367.809.82.809h2.056L6.148 12.65a.819.819 0 00.788.582h10.422a.819.819 0 00.787-.582l2.822-9.512a.801.801 0 00-.13-.713zm-4.093 9.188H7.55L5.21 3.72h13.876l-2.342 7.893zM9.938 17a1.1 1.1 0 001.107-1.093 1.1 1.1 0 00-1.107-1.093 1.1 1.1 0 00-1.108 1.093A1.1 1.1 0 009.938 17zm4.418 0a1.1 1.1 0 001.107-1.093 1.1 1.1 0 00-1.107-1.093 1.1 1.1 0 00-1.107 1.093A1.1 1.1 0 0014.355 17z"/></svg>