<svg width="16" height="15" viewBox="0 0 16 15" xmlns="http://www.w3.org/2000/svg"><path d="M8.373 0a7.496 7.496 0 00-7.5 7.5c0 4.146 3.355 7.5 7.5 7.5 4.146 0 7.5-3.355 7.5-7.5 0-4.146-3.355-7.5-7.5-7.5zm0 13.828A6.325 6.325 0 012.045 7.5a6.325 6.325 0 016.328-6.328A6.325 6.325 0 0114.701 7.5a6.325 6.325 0 01-6.328 6.328z"/><path d="M8.373 4.74c-.372 0-.637.157-.637.389v3.154c0 .199.265.398.637.398.356 0 .646-.2.646-.398V5.13c0-.232-.29-.39-.646-.39z"/><path d="M11.677 8.035c0-.373-.158-.638-.39-.638H8.133c-.199 0-.397.265-.397.638 0 .356.198.646.397.646h3.155c.231 0 .389-.29.389-.646z"/></svg>