<svg width="17" height="14" viewBox="0 0 17 14" xmlns="http://www.w3.org/2000/svg"><path d="M12.418 0A5.62 5.62 0 008.5 1.57 5.616 5.616 0 004.582 0C1.915 0 0 2.222 0 4.886c0 1.548.676 3.149 1.956 4.628 1.399 1.616 3.503 3.103 6.255 4.42a.67.67 0 00.578 0c2.752-1.317 4.856-2.804 6.255-4.42C16.324 8.034 17 6.434 17 4.886 17 2.223 15.086 0 12.418 0zm1.617 8.659c-1.23 1.422-3.092 2.751-5.535 3.952-2.443-1.201-4.304-2.53-5.535-3.952C1.88 7.404 1.328 6.134 1.328 4.886c0-1.917 1.307-3.572 3.254-3.572.917 0 1.759.268 2.502.795.554.394.85.797.869.823a.66.66 0 00.545.288h.004c.219 0 .422-.11.546-.289.011-.016 1.144-1.617 3.37-1.617 1.947 0 3.254 1.656 3.254 3.572 0 1.248-.55 2.518-1.637 3.773z"/></svg>