<svg width="12" height="15" viewBox="0 0 12 15" fill="none" xmlns="http://www.w3.org/2000/svg"><path d="M8.624 15c-.387 0-.771-.086-1.147-.256-1.654-.752-3.19-1.975-4.441-3.539S.806 7.722.205 5.653a5.128 5.128 0 01-.17-2.039 4.9 4.9 0 01.579-1.81A3.805 3.805 0 011.784.5a2.827 2.827 0 011.6-.5c.178 0 .33.154.367.37l.589 3.434a.55.55 0 01-.101.43L3.233 5.49c.949 2.358 2.488 4.282 4.374 5.468l1.006-1.257c.09-.113.22-.16.344-.127l2.747.736c.172.046.296.237.296.458a5.03 5.03 0 01-.4 2 4.103 4.103 0 01-1.043 1.464 3.051 3.051 0 01-1.448.723 2.66 2.66 0 01-.485.044zM3.085.958c-.75.103-1.415.595-1.857 1.383C.73 3.228.615 4.318.91 5.333c1.155 3.976 3.642 7.085 6.823 8.53.812.368 1.685.223 2.394-.398.63-.552 1.024-1.384 1.107-2.322l-2.235-.598-1.05 1.313c-.112.14-.282.177-.425.093-2.23-1.31-4.037-3.568-5.085-6.356a.558.558 0 01.075-.531l1.05-1.313L3.085.958z" fill="#E0171A"/></svg>