<svg width="30" height="30" viewBox="0 0 30 30" fill="none" xmlns="http://www.w3.org/2000/svg">
<g clip-path="url(#clip0_1690:681)">
<path d="M29.85 14.5937C21.6875 5.06873 22.2875 5.62498 21.875 5.62498H0.625C0.45924 5.62498 0.300269 5.69083 0.183058 5.80804C0.065848 5.92525 0 6.08422 0 6.24998L0 21.25C0 21.4157 0.065848 21.5747 0.183058 21.6919C0.300269 21.8091 0.45924 21.875 0.625 21.875H3.8125C3.95595 22.5814 4.33921 23.2165 4.89734 23.6727C5.45547 24.1289 6.15415 24.3781 6.875 24.3781C7.59585 24.3781 8.29453 24.1289 8.85266 23.6727C9.4108 23.2165 9.79405 22.5814 9.9375 21.875H20.6875C20.8309 22.5814 21.2142 23.2165 21.7723 23.6727C22.3305 24.1289 23.0292 24.3781 23.75 24.3781C24.4708 24.3781 25.1695 24.1289 25.7277 23.6727C26.2858 23.2165 26.6691 22.5814 26.8125 21.875H29.375C29.5408 21.875 29.6997 21.8091 29.8169 21.6919C29.9342 21.5747 30 21.4157 30 21.25C30 14.5312 30.0563 14.8312 29.85 14.5937ZM28.0188 14.375H21.25V9.37498H23.75L28.0188 14.375ZM6.875 23.125C6.50416 23.125 6.14165 23.015 5.83331 22.809C5.52496 22.603 5.28464 22.3101 5.14273 21.9675C5.00081 21.6249 4.96368 21.2479 5.03603 20.8842C5.10838 20.5205 5.28695 20.1864 5.54918 19.9242C5.8114 19.6619 6.14549 19.4834 6.50921 19.411C6.87292 19.3387 7.24992 19.3758 7.59253 19.5177C7.93514 19.6596 8.22798 19.8999 8.43401 20.2083C8.64003 20.5166 8.75 20.8791 8.75 21.25C8.75 21.7473 8.55246 22.2242 8.20083 22.5758C7.8492 22.9274 7.37228 23.125 6.875 23.125ZM23.75 23.125C23.3792 23.125 23.0167 23.015 22.7083 22.809C22.4 22.603 22.1596 22.3101 22.0177 21.9675C21.8758 21.6249 21.8387 21.2479 21.911 20.8842C21.9834 20.5205 22.162 20.1864 22.4242 19.9242C22.6864 19.6619 23.0205 19.4834 23.3842 19.411C23.7479 19.3387 24.1249 19.3758 24.4675 19.5177C24.8101 19.6596 25.103 19.8999 25.309 20.2083C25.515 20.5166 25.625 20.8791 25.625 21.25C25.625 21.7473 25.4275 22.2242 25.0758 22.5758C24.7242 22.9274 24.2473 23.125 23.75 23.125ZM26.8125 20.625C26.6691 19.9185 26.2858 19.2834 25.7277 18.8272C25.1695 18.3711 24.4708 18.1218 23.75 18.1218C23.0292 18.1218 22.3305 18.3711 21.7723 18.8272C21.2142 19.2834 20.8309 19.9185 20.6875 20.625H9.9375C9.79405 19.9185 9.4108 19.2834 8.85266 18.8272C8.29453 18.3711 7.59585 18.1218 6.875 18.1218C6.15415 18.1218 5.45547 18.3711 4.89734 18.8272C4.33921 19.2834 3.95595 19.9185 3.8125 20.625H1.25V19.375H3.125C3.29076 19.375 3.44973 19.3091 3.56694 19.1919C3.68415 19.0747 3.75 18.9157 3.75 18.75C3.75 18.5842 3.68415 18.4252 3.56694 18.308C3.44973 18.1908 3.29076 18.125 3.125 18.125H1.25V6.87498H13.75V11.875C13.75 12.0407 13.8158 12.1997 13.9331 12.3169C14.0503 12.4341 14.2092 12.5 14.375 12.5C14.5408 12.5 14.6997 12.4341 14.8169 12.3169C14.9342 12.1997 15 12.0407 15 11.875V6.87498H21.5875L22.6563 8.12498H20.625C20.4592 8.12498 20.3003 8.19083 20.1831 8.30804C20.0658 8.42525 20 8.58422 20 8.74998V15C20 15.1657 20.0658 15.3247 20.1831 15.4419C20.3003 15.5591 20.4592 15.625 20.625 15.625H28.75V16.875H27.5C27.3342 16.875 27.1753 16.9408 27.0581 17.058C26.9408 17.1752 26.875 17.3342 26.875 17.5C26.875 17.6657 26.9408 17.8247 27.0581 17.9419C27.1753 18.0591 27.3342 18.125 27.5 18.125H28.75V20.625H26.8125Z" fill="#E0171A"/>
<path d="M18.125 14.3749H17.5C17.3342 14.3749 17.1753 14.4408 17.0581 14.558C16.9408 14.6752 16.875 14.8342 16.875 14.9999C16.875 15.1657 16.9408 15.3247 17.0581 15.4419C17.1753 15.5591 17.3342 15.6249 17.5 15.6249H18.125C18.2908 15.6249 18.4497 15.5591 18.5669 15.4419C18.6842 15.3247 18.75 15.1657 18.75 14.9999C18.75 14.8342 18.6842 14.6752 18.5669 14.558C18.4497 14.4408 18.2908 14.3749 18.125 14.3749Z" fill="#E0171A"/>
<path d="M23.75 20.625C23.5842 20.625 23.4253 20.6908 23.3081 20.8081C23.1908 20.9253 23.125 21.0842 23.125 21.25C23.125 21.4158 23.1908 21.5747 23.3081 21.6919C23.4253 21.8091 23.5842 21.875 23.75 21.875C23.9158 21.875 24.0747 21.8091 24.1919 21.6919C24.3091 21.5747 24.375 21.4158 24.375 21.25C24.375 21.0842 24.3091 20.9253 24.1919 20.8081C24.0747 20.6908 23.9158 20.625 23.75 20.625Z" fill="#E0171A"/>
<path d="M6.875 20.625C6.70924 20.625 6.55027 20.6908 6.43306 20.8081C6.31585 20.9253 6.25 21.0842 6.25 21.25C6.25 21.4158 6.31585 21.5747 6.43306 21.6919C6.55027 21.8091 6.70924 21.875 6.875 21.875C7.04076 21.875 7.19974 21.8091 7.31695 21.6919C7.43416 21.5747 7.50001 21.4158 7.50001 21.25C7.50001 21.0842 7.43416 20.9253 7.31695 20.8081C7.19974 20.6908 7.04076 20.625 6.875 20.625Z" fill="#E0171A"/>
<path d="M10.625 8.74994H4.375C4.20924 8.74994 4.05027 8.81579 3.93306 8.933C3.81585 9.05021 3.75 9.20918 3.75 9.37494V15.6249C3.75 15.7907 3.81585 15.9497 3.93306 16.0669C4.05027 16.1841 4.20924 16.2499 4.375 16.2499H10.625C10.7908 16.2499 10.9497 16.1841 11.0669 16.0669C11.1842 15.9497 11.25 15.7907 11.25 15.6249V9.37494C11.25 9.20918 11.1842 9.05021 11.0669 8.933C10.9497 8.81579 10.7908 8.74994 10.625 8.74994ZM10 14.9999H5V9.99994H6.25V10.6249C6.25 10.7907 6.31585 10.9497 6.43306 11.0669C6.55027 11.1841 6.70924 11.2499 6.875 11.2499H8.125C8.29076 11.2499 8.44973 11.1841 8.56694 11.0669C8.68415 10.9497 8.75 10.7907 8.75 10.6249V9.99994H10V14.9999Z" fill="#E0171A"/>
</g>
<defs>
<clipPath id="clip0_1690:681">
<rect width="30" height="30" fill="white"/>
</clipPath>
</defs>
</svg>
