<svg width="16" height="15" viewBox="0 0 16 15"  xmlns="http://www.w3.org/2000/svg">
<path d="M8.37305 0C4.22745 0 0.873047 3.35496 0.873047 7.5C0.873047 11.6456 4.22804 15 8.37305 15C12.5186 15 15.873 11.645 15.873 7.5C15.873 3.3544 12.5181 0 8.37305 0ZM8.37305 13.8281C4.87521 13.8281 2.04492 10.9974 2.04492 7.5C2.04492 4.00216 4.87567 1.17188 8.37305 1.17188C11.8709 1.17188 14.7012 4.00263 14.7012 7.5C14.7012 10.9978 11.8704 13.8281 8.37305 13.8281Z" />
<path d="M8.37311 4.73947C8.00051 4.73947 7.73558 4.8968 7.73558 5.12862V8.2831C7.73558 8.4818 8.00054 8.68052 8.37311 8.68052C8.72912 8.68052 9.0189 8.4818 9.0189 8.2831V5.12862C9.0189 4.8968 8.72912 4.73947 8.37311 4.73947Z" />
<path d="M11.6766 8.03473C11.6766 7.66213 11.5193 7.3972 11.2875 7.3972H8.13299C7.9343 7.3972 7.73558 7.66216 7.73558 8.03473C7.73558 8.39074 7.9343 8.68052 8.13299 8.68052H11.2875C11.5193 8.68052 11.6766 8.39074 11.6766 8.03473Z" />
</svg>
