<svg width="22" height="17" viewBox="0 0 22 17"  xmlns="http://www.w3.org/2000/svg">
<path d="M20.9884 2.42485C20.8356 2.22081 20.5955 2.10071 20.3406 2.10071H5.09249L4.64794 0.582088C4.54695 0.237069 4.23055 0 3.87104 0H1.23579C0.788693 0 0.42627 0.362424 0.42627 0.809524C0.42627 1.25662 0.788693 1.61905 1.23579 1.61905H3.2645C3.38273 2.02296 6.37295 12.2378 6.49373 12.6504C6.59472 12.9954 6.91116 13.2325 7.27063 13.2325H17.5559C17.9154 13.2325 18.2318 12.9954 18.3328 12.6504L21.1175 3.13767C21.1891 2.89304 21.1413 2.62889 20.9884 2.42485ZM16.9494 11.6135H7.87717L5.56646 3.71976H19.2601L16.9494 11.6135Z" />
<path d="M10.2332 17C10.8368 17 11.3261 16.5107 11.3261 15.9071C11.3261 15.3036 10.8368 14.8143 10.2332 14.8143C9.62968 14.8143 9.14039 15.3036 9.14039 15.9071C9.14039 16.5107 9.62968 17 10.2332 17Z" />
<path d="M14.5933 17C15.1969 17 15.6862 16.5107 15.6862 15.9071C15.6862 15.3036 15.1969 14.8143 14.5933 14.8143C13.9898 14.8143 13.5005 15.3036 13.5005 15.9071C13.5005 16.5107 13.9898 17 14.5933 17Z" />
</svg>
