<svg width="20" height="19" viewBox="0 0 20 19" fill="none" xmlns="http://www.w3.org/2000/svg">
<path d="M11.0238 0.142976C10.8813 0.0254759 10.6925 -0.0232741 10.51 0.0104759L0.51 1.88548C0.21375 1.94048 0 2.19798 0 2.49923V16.2492C0 16.5492 0.21375 16.808 0.51 16.863L10.51 18.738C10.5475 18.7455 10.5875 18.7492 10.625 18.7492C10.7688 18.7492 10.9113 18.6992 11.0238 18.6055C11.1675 18.4867 11.25 18.3092 11.25 18.1242V0.624226C11.25 0.437976 11.1675 0.261726 11.0238 0.142976ZM10 17.3705L1.25 15.7305V3.01798L10 1.37798V17.3705Z" fill="white"/>
<path d="M19.375 2.49923H10.625C10.28 2.49923 10 2.77923 10 3.12423C10 3.46923 10.28 3.74923 10.625 3.74923H18.75V14.9992H10.625C10.28 14.9992 10 15.2792 10 15.6242C10 15.9692 10.28 16.2492 10.625 16.2492H19.375C19.72 16.2492 20 15.9692 20 15.6242V3.12423C20 2.77923 19.72 2.49923 19.375 2.49923Z" fill="white"/>
<path d="M13.125 4.99923H10.625C10.28 4.99923 10 5.27923 10 5.62423C10 5.96923 10.28 6.24923 10.625 6.24923H13.125C13.47 6.24923 13.75 5.96923 13.75 5.62423C13.75 5.27923 13.47 4.99923 13.125 4.99923Z" fill="white"/>
<path d="M13.125 7.49923H10.625C10.28 7.49923 10 7.77923 10 8.12423C10 8.46923 10.28 8.74923 10.625 8.74923H13.125C13.47 8.74923 13.75 8.46923 13.75 8.12423C13.75 7.77923 13.47 7.49923 13.125 7.49923Z" fill="white"/>
<path d="M13.125 9.99923H10.625C10.28 9.99923 10 10.2792 10 10.6242C10 10.9692 10.28 11.2492 10.625 11.2492H13.125C13.47 11.2492 13.75 10.9692 13.75 10.6242C13.75 10.2792 13.47 9.99923 13.125 9.99923Z" fill="white"/>
<path d="M13.125 12.4992H10.625C10.28 12.4992 10 12.7792 10 13.1242C10 13.4692 10.28 13.7492 10.625 13.7492H13.125C13.47 13.7492 13.75 13.4692 13.75 13.1242C13.75 12.7792 13.47 12.4992 13.125 12.4992Z" fill="white"/>
<path d="M16.875 4.99923H15.625C15.28 4.99923 15 5.27923 15 5.62423C15 5.96923 15.28 6.24923 15.625 6.24923H16.875C17.22 6.24923 17.5 5.96923 17.5 5.62423C17.5 5.27923 17.22 4.99923 16.875 4.99923Z" fill="white"/>
<path d="M16.875 7.49923H15.625C15.28 7.49923 15 7.77923 15 8.12423C15 8.46923 15.28 8.74923 15.625 8.74923H16.875C17.22 8.74923 17.5 8.46923 17.5 8.12423C17.5 7.77923 17.22 7.49923 16.875 7.49923Z" fill="white"/>
<path d="M16.875 9.99923H15.625C15.28 9.99923 15 10.2792 15 10.6242C15 10.9692 15.28 11.2492 15.625 11.2492H16.875C17.22 11.2492 17.5 10.9692 17.5 10.6242C17.5 10.2792 17.22 9.99923 16.875 9.99923Z" fill="white"/>
<path d="M16.875 12.4992H15.625C15.28 12.4992 15 12.7792 15 13.1242C15 13.4692 15.28 13.7492 15.625 13.7492H16.875C17.22 13.7492 17.5 13.4692 17.5 13.1242C17.5 12.7792 17.22 12.4992 16.875 12.4992Z" fill="white"/>
<path d="M8.59625 11.463L4.22125 6.46298C3.99125 6.20173 3.5975 6.17673 3.33875 6.40423C3.07875 6.63173 3.0525 7.02673 3.28 7.28548L7.655 12.2855C7.77875 12.4267 7.95125 12.4992 8.125 12.4992C8.27125 12.4992 8.4175 12.448 8.5375 12.3442C8.7975 12.1167 8.82375 11.723 8.59625 11.463Z" fill="white"/>
<path d="M8.50875 5.75673C8.23625 5.54298 7.84375 5.59423 7.63125 5.86548L3.25625 11.4905C3.045 11.763 3.09375 12.1567 3.36625 12.368C3.48125 12.4567 3.61625 12.4992 3.75 12.4992C3.935 12.4992 4.12 12.4167 4.2425 12.2592L8.6175 6.63423C8.83 6.36048 8.78125 5.96798 8.50875 5.75673Z" fill="white"/>
</svg>
