<svg width="18" height="15" viewBox="0 0 18 15" fill="none" xmlns="http://www.w3.org/2000/svg">
<path d="M12.7734 0C10.8386 0 9.53344 0.932809 8.85547 1.58784C8.17749 0.932809 6.87231 0 4.9375 0C2.27043 0 0.355469 2.24546 0.355469 4.9382C0.355469 6.5036 1.03192 8.12112 2.31173 9.61592C3.71028 11.2495 5.81459 12.7528 8.56624 14.0843C8.65758 14.1285 8.75649 14.1506 8.85547 14.1506C8.95445 14.1506 9.05336 14.1285 9.1447 14.0843C11.8963 12.7528 14.0007 11.2495 15.3992 9.61592C16.679 8.12112 17.3555 6.5036 17.3555 4.9382C17.3555 2.24715 15.4418 0 12.7734 0ZM14.3903 8.75218C13.1597 10.1895 11.2985 11.5327 8.85547 12.7469C6.41248 11.5327 4.55118 10.1895 3.32061 8.75218C2.23437 7.48342 1.68359 6.20022 1.68359 4.9382C1.68359 3.00143 2.99034 1.32812 4.9375 1.32812C5.85467 1.32812 6.69637 1.5986 7.43919 2.13207C7.99305 2.52981 8.28929 2.93718 8.30851 2.96401C8.43113 3.14629 8.63414 3.25324 8.85394 3.25444C8.8551 3.25444 8.85623 3.25444 8.8574 3.25444C9.0765 3.25444 9.27967 3.14347 9.40349 2.96252C9.41464 2.94615 10.5479 1.32812 12.7734 1.32812C14.7208 1.32812 16.0273 3.00226 16.0273 4.9382C16.0273 6.20022 15.4766 7.48342 14.3903 8.75218Z" fill="black"/>
</svg>
