<svg width="20" height="15" viewBox="0 0 20 15" xmlns="http://www.w3.org/2000/svg">
<path d="M19.2188 6.70312H0.78125C0.349766 6.70312 0 7.05289 0 7.48438C0 7.91586 0.349766 8.26562 0.78125 8.26562H19.2188C19.6502 8.26562 20 7.91586 20 7.48438C20 7.05289 19.6502 6.70312 19.2188 6.70312Z"  />
<path d="M19.2188 0.453125H0.78125C0.349766 0.453125 0 0.802891 0 1.23438C0 1.66586 0.349766 2.01562 0.78125 2.01562H19.2188C19.6502 2.01562 20 1.66586 20 1.23438C20 0.802891 19.6502 0.453125 19.2188 0.453125Z"  />
<path d="M19.2188 12.9531H0.78125C0.349766 12.9531 0 13.3029 0 13.7344C0 14.1659 0.349766 14.5156 0.78125 14.5156H19.2188C19.6502 14.5156 20 14.1659 20 13.7344C20 13.3029 19.6502 12.9531 19.2188 12.9531Z"  />
</svg>
