<svg width="12" height="15" viewBox="0 0 12 15" xmlns="http://www.w3.org/2000/svg">
    <path d="M11.7083 3.93059C11.1467 2.2029 9.68805 0.802364 7.90145 0.27546C5.99893 -0.285604 4.0155 0.0189664 2.45979 1.11107C1.71437 1.63434 1.0958 2.32454 0.67104 3.10697C0.232028 3.91565 0 4.82608 0 5.73988C0 6.9864 0.414062 8.17099 1.19745 9.16559L6.00062 15L10.7978 9.17303L10.8039 9.16559C11.9761 7.67705 12.3058 5.76894 11.7083 3.93059ZM10.0681 8.6345L6.00062 13.5756L1.9331 8.6345C1.27243 7.794 0.923187 6.79313 0.923187 5.73988C0.923187 4.20083 1.70239 2.73496 3.00759 1.81873C4.32474 0.894093 6.00896 0.637716 7.62839 1.11525C9.12823 1.55758 10.3536 2.73596 10.8265 4.19052C11.3349 5.75503 11.0585 7.37456 10.0681 8.6345Z"  />
    <path d="M6.00062 2.66295C4.21901 2.66295 2.76953 4.04327 2.76953 5.73988C2.76953 7.43649 4.21901 8.81681 6.00062 8.81681C7.78224 8.81681 9.23171 7.43649 9.23171 5.73988C9.23171 4.04327 7.78224 2.66295 6.00062 2.66295ZM6.00062 7.9377C4.72804 7.9377 3.69269 6.95177 3.69269 5.73988C3.69269 4.52802 4.72801 3.54206 6.00062 3.54206C7.27323 3.54206 8.30856 4.52799 8.30856 5.73988C8.30856 6.95175 7.27321 7.9377 6.00062 7.9377Z" />
</svg>
