<svg width="12" height="12" viewBox="0 0 12 12" fill="none" xmlns="http://www.w3.org/2000/svg">
<path d="M5.8162 8.04422C5.4731 8.04422 5.19532 8.33016 5.19532 8.67328C5.19532 9.00823 5.46492 9.30234 5.8162 9.30234C6.16748 9.30234 6.44527 9.00825 6.44527 8.67328C6.44527 8.33016 6.15935 8.04422 5.8162 8.04422Z" fill="#BBBBBB"/>
<path d="M5.92242 3.2813C4.81952 3.2813 4.31302 3.93485 4.31302 4.37602C4.31302 4.69465 4.58259 4.8417 4.80319 4.8417C5.24433 4.8417 5.06461 4.21263 5.89791 4.21263C6.3064 4.21263 6.63319 4.39237 6.63319 4.76817C6.63319 5.20936 6.17569 5.4626 5.90609 5.69135C5.66918 5.89559 5.35873 6.23055 5.35873 6.93314C5.35873 7.35795 5.47308 7.4805 5.80805 7.4805C6.20836 7.4805 6.29004 7.30078 6.29004 7.14556C6.29004 6.72073 6.29824 6.47564 6.74756 6.12436C6.96813 5.9528 7.66256 5.39726 7.66256 4.6293C7.66256 3.86135 6.96813 3.2813 5.92242 3.2813Z" fill="#BBBBBB"/>
<path d="M6 0C2.68397 0 0 2.68352 0 6V11.5312C0 11.7901 0.209859 12 0.46875 12H6C9.31601 12 12 9.31648 12 6C12 2.68397 9.31648 0 6 0ZM6 11.0625H0.9375V6C0.9375 3.2021 3.20173 0.9375 6 0.9375C8.7979 0.9375 11.0625 3.20173 11.0625 6C11.0625 8.7979 8.79827 11.0625 6 11.0625Z" fill="#BBBBBB"/>
</svg>
