<svg width="18" height="18" viewBox="0 0 18 18" fill="none" xmlns="http://www.w3.org/2000/svg">
<path d="M11.6813 8.7416C12.7732 7.89806 13.4778 6.5764 13.4778 5.09302C13.4778 2.55181 11.4104 0.484375 8.86914 0.484375C6.32793 0.484375 4.26049 2.55181 4.26049 5.09302C4.26049 6.57636 4.96509 7.89806 6.057 8.7416C2.81847 9.87358 0.369141 12.9807 0.369141 16.7671C0.369141 17.1632 0.690276 17.4844 1.08644 17.4844H16.6518C17.048 17.4844 17.3691 17.1632 17.3691 16.7671C17.3691 12.9798 14.918 9.87293 11.6813 8.7416ZM5.69509 5.09302C5.69509 3.34285 7.11897 1.91897 8.86914 1.91897C10.6193 1.91897 12.0432 3.34285 12.0432 5.09302C12.0432 6.8432 10.6193 8.26708 8.86914 8.26708C7.11897 8.26708 5.69509 6.8432 5.69509 5.09302ZM1.83989 16.0498C2.20044 12.4895 5.21532 9.70167 8.86914 9.70167C12.523 9.70167 15.5378 12.4895 15.8984 16.0498H1.83989Z" fill="#333333"/>
</svg>
