<?xml version="1.0" encoding="utf-8"?><svg width="20" height="19" fill="none" xmlns="http://www.w3.org/2000/svg" viewBox="0 0 20 19"><path d="M11.024.145A.623.623 0 0010.51.01l-10 1.9a.63.63 0 00-.51.622v13.934a.63.63 0 00.51.622l10 1.9a.62.62 0 00.514-.134c.143-.121.226-.3.226-.488V.633a.635.635 0 00-.226-.488zM10 17.603L1.25 15.94V3.058L10 1.396v16.207z" fill="#fff"/><path d="M19.375 2.533h-8.75a.63.63 0 00-.625.633c0 .35.28.633.625.633h8.125v11.4h-8.125a.63.63 0 00-.625.634c0 .35.28.634.625.634h8.75a.63.63 0 00.625-.634V3.166a.63.63 0 00-.625-.633z" fill="#fff"/><path d="M13.125 5.066h-2.5A.63.63 0 0010 5.7c0 .35.28.634.625.634h2.5a.63.63 0 00.625-.634.63.63 0 00-.625-.633zM13.125 7.6h-2.5a.63.63 0 00-.625.633c0 .35.28.633.625.633h2.5a.63.63 0 00.625-.633.63.63 0 00-.625-.633zM13.125 10.133h-2.5a.63.63 0 00-.625.633c0 .35.28.634.625.634h2.5a.63.63 0 00.625-.634.63.63 0 00-.625-.633zM13.125 12.666h-2.5A.63.63 0 0010 13.3c0 .35.28.633.625.633h2.5a.63.63 0 00.625-.633.63.63 0 00-.625-.634zM16.875 5.066h-1.25A.63.63 0 0015 5.7c0 .35.28.634.625.634h1.25a.63.63 0 00.625-.634.63.63 0 00-.625-.633zM16.875 7.6h-1.25a.63.63 0 00-.625.633c0 .35.28.633.625.633h1.25a.63.63 0 00.625-.633.63.63 0 00-.625-.633zM16.875 10.133h-1.25a.63.63 0 00-.625.633c0 .35.28.634.625.634h1.25a.63.63 0 00.625-.634.63.63 0 00-.625-.633zM16.875 12.666h-1.25A.63.63 0 0015 13.3c0 .35.28.633.625.633h1.25a.63.63 0 00.625-.633.63.63 0 00-.625-.634zM8.596 11.616L4.221 6.55a.619.619 0 00-.882-.06.638.638 0 00-.059.894l4.375 5.067a.62.62 0 00.882.06c.26-.231.287-.63.06-.894z" fill="#fff"/><path d="M8.509 5.834a.62.62 0 00-.878.11l-4.375 5.7a.64.64 0 00.11.89.62.62 0 00.876-.11l4.375-5.701a.639.639 0 00-.108-.89z" fill="#fff"/></svg>