<?xml version="1.0" encoding="utf-8"?><svg width="13" height="15" fill="none" xmlns="http://www.w3.org/2000/svg" viewBox="0 0 13 15"><path d="M6.445 5.355c-.372 0-.637.157-.637.389v3.154c0 .199.265.398.637.398.356 0 .646-.199.646-.398V5.744c0-.232-.29-.39-.646-.39zM6.445 3.409c-.38 0-.679.273-.679.588 0 .314.299.596.68.596.372 0 .67-.282.67-.596 0-.315-.298-.588-.67-.588z" fill="#BBB"/><path d="M6.445 0a6.443 6.443 0 00-1.95 12.582l1.465 2.161a.586.586 0 00.97 0l1.466-2.16a6.443 6.443 0 004.495-6.141A6.44 6.44 0 006.445 0zM7.87 11.517a.586.586 0 00-.327.235L6.445 13.37l-1.098-1.618a.586.586 0 00-.327-.235 5.272 5.272 0 01-3.848-5.075 5.278 5.278 0 015.273-5.27 5.278 5.278 0 015.274 5.27 5.272 5.272 0 01-3.849 5.075z" fill="#BBB"/></svg>