<?xml version="1.0" encoding="utf-8"?><svg width="12" height="15" xmlns="http://www.w3.org/2000/svg" viewBox="0 0 12 15"><path d="M11.708 3.93C11.147 2.204 9.688.803 7.901.276 6-.285 4.016.02 2.46 1.111A5.892 5.892 0 00.67 3.107 5.536 5.536 0 000 5.74a5.49 5.49 0 001.197 3.426L6.001 15l4.797-5.827.006-.007c1.172-1.489 1.502-3.397.904-5.235zm-1.64 4.704l-4.067 4.942-4.068-4.942A4.645 4.645 0 01.923 5.74c0-1.54.78-3.005 2.085-3.921C4.325.894 6.009.638 7.628 1.115c1.5.443 2.726 1.621 3.198 3.076.509 1.564.232 3.184-.758 4.443z"/><path d="M6 2.663c-1.781 0-3.23 1.38-3.23 3.077 0 1.696 1.449 3.077 3.23 3.077 1.782 0 3.232-1.38 3.232-3.077S7.782 2.663 6 2.663zm0 5.275c-1.272 0-2.307-.986-2.307-2.198S4.728 3.542 6 3.542c1.272 0 2.308.986 2.308 2.198S7.273 7.938 6 7.938z"/></svg>