<?xml version="1.0" encoding="utf-8"?><svg width="17" height="16" fill="none" xmlns="http://www.w3.org/2000/svg" viewBox="0 0 17 16"><path d="M11.312 7.771c1.092-.793 1.797-2.037 1.797-3.433C13.109 1.946 11.04 0 8.5 0S3.891 1.946 3.891 4.338c0 1.396.705 2.64 1.797 3.433C2.449 8.837 0 11.761 0 15.325c0 .373.321.675.717.675h15.566c.396 0 .717-.302.717-.675 0-3.565-2.451-6.489-5.688-7.554zM5.326 4.338C5.326 2.69 6.75 1.35 8.5 1.35s3.174 1.34 3.174 2.988c0 1.647-1.424 2.987-3.174 2.987s-3.174-1.34-3.174-2.987zM1.471 14.65c.36-3.351 3.375-5.975 7.029-5.975s6.669 2.624 7.03 5.975H1.47z" fill="#333"/></svg>