<?xml version="1.0" encoding="utf-8"?><svg width="368" height="279" fill="none" xmlns="http://www.w3.org/2000/svg" viewBox="0 0 368 279"><path d="M183.392 1l-55.934 85.43c67.12-2.071 88.764-21.573 91.196-31.066L183.392 1zM328.09 224.93H166.369c53.502-21.746 92.007-69.466 104.572-90.608l57.149 90.608z" fill="#E0171A" stroke="#E0171A"/><path d="M261.213 61.837c0 90.089-73.768 146.266-110.651 163.093 17.509-45.562 11.348-97.511 6.079-117.79 44.747 3.107 88.359-28.908 104.572-45.303zM367 240.463H1V278h366v-37.537z" fill="#333" stroke="#333"/><path d="M42.342 224.93h99.707c15.565-63.166-6.485-113.475-19.455-130.734L42.342 224.93z" fill="#E0171A" stroke="#E0171A"/><path d="M210.143 248.229c0 12.87-9.728 20.895-14.592 23.299 2.309-6.509 1.497-13.93.802-16.827 5.901.444 11.652-4.13 13.79-6.472z" fill="#fff" stroke="#fff"/><path d="M81.58 258.234l.695 2.996h.22l.538-3.13 3.604-10.13h4.9l-6.417 16.39c-.485 1.256-.97 2.344-1.454 3.264-.485.92-1.001 1.694-1.55 2.322a5.73 5.73 0 01-1.833 1.38c-.675.292-1.454.437-2.34.437-.758 0-1.359-.044-1.802-.134-.442-.09-.938-.314-1.486-.673l1.17-4.005c.4.202.759.325 1.075.37.337.045.685.067 1.043.067 1.096 0 1.855-.785 2.277-2.355l-9.01-17.063h5.5l4.87 10.264zM107.409 252.345h-5.09a242.324 242.324 0 01-.348 5.789 51.052 51.052 0 01-.474 4.61c-.189 1.369-.453 2.592-.79 3.668-.337 1.055-.759 1.986-1.265 2.794a5.397 5.397 0 01-1.138 1.279c-.4.336-.822.605-1.264.807-.443.18-.875.303-1.297.37-.421.09-.811.135-1.17.135-.547 0-.98-.045-1.295-.135a6.307 6.307 0 01-.98-.403l.505-4.173c.232.089.506.134.822.134.359 0 .717-.09 1.075-.269.358-.18.675-.471.949-.875.337-.494.632-1.2.885-2.12.274-.92.495-2.109.664-3.568.19-1.48.337-3.242.442-5.283.127-2.042.211-4.42.253-7.135h14.195v23.558h-4.679v-19.183zM133.105 258.537l.253-2.995h-.158l-1.613 3.029-9.073 12.957h-3.478V247.97h4.679v12.688l-.316 3.129h.19l1.707-3.129 8.979-12.688h3.509v23.558h-4.679v-12.991zM160.978 270.518c-.695.516-1.612.886-2.75 1.111-1.138.247-2.308.37-3.51.37-1.412 0-2.771-.224-4.078-.673a9.273 9.273 0 01-3.446-2.154c-.99-.987-1.781-2.255-2.371-3.803-.59-1.548-.885-3.421-.885-5.62 0-2.289.337-4.207 1.012-5.755.674-1.57 1.538-2.827 2.592-3.769 1.054-.965 2.224-1.661 3.509-2.087 1.286-.426 2.55-.639 3.794-.639 1.37 0 2.519.09 3.446.269.948.18 1.728.393 2.339.639l-.916 4.174c-.527-.247-1.149-.427-1.866-.539-.695-.112-1.58-.168-2.655-.168-.949 0-1.813.168-2.593.505a5.072 5.072 0 00-1.96 1.447c-.548.65-.98 1.469-1.296 2.457-.295.987-.443 2.142-.443 3.466 0 1.167.137 2.232.411 3.197.274.965.685 1.795 1.233 2.49a5.495 5.495 0 002.087 1.616c.843.381 1.823.572 2.94.572 1.033 0 1.897-.101 2.592-.303a8.368 8.368 0 001.897-.774l.917 3.971zM181.885 270.518c-.696.516-1.613.886-2.751 1.111-1.138.247-2.308.37-3.509.37-1.412 0-2.772-.224-4.078-.673a9.257 9.257 0 01-3.446-2.154c-.991-.987-1.781-2.255-2.371-3.803-.591-1.548-.886-3.421-.886-5.62 0-2.289.338-4.207 1.012-5.755.674-1.57 1.539-2.827 2.592-3.769 1.054-.965 2.224-1.661 3.51-2.087 1.285-.426 2.55-.639 3.793-.639 1.37 0 2.519.09 3.446.269.949.18 1.729.393 2.34.639l-.917 4.174c-.527-.247-1.149-.427-1.865-.539-.696-.112-1.581-.168-2.656-.168-.948 0-1.812.168-2.592.505a5.064 5.064 0 00-1.96 1.447c-.548.65-.98 1.469-1.297 2.457-.295.987-.442 2.142-.442 3.466 0 1.167.137 2.232.411 3.197.274.965.685 1.795 1.233 2.49a5.491 5.491 0 002.086 1.616c.843.381 1.823.572 2.94.572 1.033 0 1.897-.101 2.593-.303a8.387 8.387 0 001.897-.774l.917 3.971zM230.27 261.566h-1.233v9.962h-4.679V247.97h4.679v10.365l1.106-.504 6.64-9.861h5.342l-7.018 9.861-1.834 1.278 1.897 1.347 8.03 11.072h-5.785l-7.145-9.962zM246.666 259.749c0-1.93.232-3.657.696-5.183.463-1.525 1.127-2.804 1.991-3.836a8.501 8.501 0 013.225-2.39c1.265-.561 2.698-.841 4.3-.841 1.707 0 3.193.303 4.457.908a8.391 8.391 0 013.193 2.491c.864 1.077 1.507 2.367 1.929 3.87.442 1.503.664 3.164.664 4.981 0 1.929-.243 3.657-.727 5.183-.464 1.525-1.139 2.815-2.024 3.87a8.998 8.998 0 01-3.224 2.389c-1.265.539-2.688.808-4.268.808-1.708 0-3.204-.292-4.49-.875a9.057 9.057 0 01-3.193-2.524c-.843-1.077-1.475-2.367-1.897-3.87-.421-1.503-.632-3.164-.632-4.981zm4.964 0c0 1.167.105 2.232.316 3.197.21.965.527 1.795.948 2.49a4.578 4.578 0 001.612 1.616c.675.381 1.465.572 2.372.572 1.665 0 2.961-.606 3.888-1.817.928-1.212 1.391-3.231 1.391-6.058 0-1.122-.095-2.165-.284-3.13-.19-.965-.506-1.795-.949-2.49-.421-.718-.969-1.268-1.644-1.649-.653-.404-1.454-.606-2.402-.606-1.644 0-2.93.628-3.857 1.884-.928 1.257-1.391 3.254-1.391 5.991zM291.924 259.715l.506-4.88h-.19l-1.517 3.702-5.122 8.784h-1.454l-5.438-8.817-1.485-3.635h-.19l.664 4.813v11.846h-4.426V247.97h4.236l6.386 10.87 1.202 2.592h.158l1.043-2.659 6.102-10.803h4.204v23.558h-4.679v-11.813z" fill="#fff"/></svg>