<?xml version="1.0" encoding="utf-8"?><svg fill="none" xmlns="http://www.w3.org/2000/svg" viewBox="0 0 187 18.88" width="187" height="18.88"><path opacity=".75" d="M8.413.922H.814v17.925h7.6V.922zM106.645.922h-7.599v17.925h7.599V.922z" fill="#fff" fill-opacity=".2"/><path opacity=".75" d="M8.413.922H.814v12.896h7.6c3.545 0 6.42-2.887 6.42-6.448 0-3.561-2.875-6.448-6.42-6.448zM33.566 18.847H21.51V.922l12.056 17.925z" fill="#fff" fill-opacity=".2"/><path opacity=".75" d="M27.145.922H21.51v12.896h5.635c.946 0 1.843-.207 2.651-.575a6.45 6.45 0 003.77-5.873c0-3.561-2.875-6.448-6.421-6.448zM82.093.922l-9.348 17.925h18.698L82.092.922z" fill="#fff" fill-opacity=".2"/><path opacity=".75" d="M72.48.922L63.13 18.847H81.829L72.48.922zM49.588 18.847c4.928 0 8.924-4.013 8.924-8.963 0-4.95-3.996-8.962-8.924-8.962-4.929 0-8.924 4.013-8.924 8.962 0 4.95 3.995 8.963 8.924 8.963zM178.467.922l-9.348 17.925H187.816L178.467.922z" fill="#fff" fill-opacity=".2"/><path opacity=".75" d="M168.854.922l-9.349 17.925H178.202L168.854.922zM146.278 18.847c4.928 0 8.924-4.013 8.924-8.963 0-4.95-3.996-8.962-8.924-8.962-4.929 0-8.924 4.013-8.924 8.962 0 4.95 3.995 8.963 8.924 8.963zM129.377 3.887a8.882 8.882 0 00-8.517-2.763 8.955 8.955 0 00-7.037 8.76c0 4.3 3.015 7.89 7.037 8.76a8.882 8.882 0 008.517-2.762l-3.461-5.998 3.461-5.997z" fill="#fff" fill-opacity=".2"/><path opacity=".75" d="M129.377 3.887a8.882 8.882 0 00-8.517-2.763l5.056 8.76 3.461-5.997zM120.86 18.644a8.886 8.886 0 008.518-2.762l-3.462-5.998-5.056 8.76zM43.277 16.222a8.878 8.878 0 006.31 2.625c4.93 0 8.925-4.013 8.925-8.963a8.954 8.954 0 00-2.614-6.337l-12.62 12.675zM139.967 16.222a8.877 8.877 0 006.311 2.625c4.928 0 8.924-4.013 8.924-8.963a8.954 8.954 0 00-2.614-6.337l-12.621 12.675z" fill="#fff" fill-opacity=".2"/></svg>