<svg width="30" height="30" viewBox="0 0 30 30" fill="none" xmlns="http://www.w3.org/2000/svg">
<g clip-path="url(#clip0_1690:693)">
<path d="M23.75 20.625V3.125C23.75 2.2962 23.4208 1.50134 22.8347 0.915291C22.2487 0.32924 21.4538 0 20.625 0L9.37503 0C8.54623 0 7.75137 0.32924 7.16532 0.915291C6.57927 1.50134 6.25003 2.2962 6.25003 3.125V25.625C6.25003 26.4538 6.57927 27.2487 7.16532 27.8347C7.75137 28.4208 8.54623 28.75 9.37503 28.75H13.3063L14.5938 29.85C14.7198 29.9577 14.8834 30.011 15.0486 29.9981C15.2139 29.9852 15.3673 29.9072 15.475 29.7813C15.5828 29.6553 15.6361 29.4917 15.6232 29.3264C15.6103 29.1611 15.5323 29.0077 15.4063 28.9L11.6563 25.675C11.5675 25.6007 11.5042 25.5005 11.475 25.3885C11.4459 25.2765 11.4525 25.1581 11.4938 25.05C11.5158 24.9794 11.5521 24.9141 11.6005 24.8582C11.6489 24.8022 11.7083 24.7569 11.775 24.725C11.841 24.6906 11.9132 24.67 11.9874 24.6647C12.0616 24.6593 12.1361 24.6692 12.2063 24.6938L14.8 25.625C14.894 25.656 14.994 25.6642 15.0918 25.649C15.1896 25.6338 15.2824 25.5956 15.3625 25.5375C15.4477 25.477 15.5164 25.3961 15.5623 25.3022C15.6081 25.2083 15.6297 25.1044 15.625 25V16.875C15.625 16.7092 15.6909 16.5503 15.8081 16.4331C15.9253 16.3158 16.0843 16.25 16.25 16.25C16.4158 16.25 16.5748 16.3158 16.692 16.4331C16.8092 16.5503 16.875 16.7092 16.875 16.875V23.75C16.875 23.9158 16.9409 24.0747 17.0581 24.1919C17.1753 24.3092 17.3343 24.375 17.5 24.375C17.6658 24.375 17.8248 24.3092 17.942 24.1919C18.0592 24.0747 18.125 23.9158 18.125 23.75V21.25C18.125 21.0842 18.1909 20.9253 18.3081 20.8081C18.4253 20.6908 18.5843 20.625 18.75 20.625C18.9158 20.625 19.0748 20.6908 19.192 20.8081C19.3092 20.9253 19.375 21.0842 19.375 21.25V23.75C19.375 23.9158 19.4409 24.0747 19.5581 24.1919C19.6753 24.3092 19.8343 24.375 20 24.375C20.1658 24.375 20.3248 24.3092 20.442 24.1919C20.5592 24.0747 20.625 23.9158 20.625 23.75V21.875C20.625 21.7092 20.6909 21.5503 20.8081 21.4331C20.9253 21.3158 21.0843 21.25 21.25 21.25C21.4158 21.25 21.5748 21.3158 21.692 21.4331C21.8092 21.5503 21.875 21.7092 21.875 21.875V23.75C21.875 23.9158 21.9409 24.0747 22.0581 24.1919C22.1753 24.3092 22.3343 24.375 22.5 24.375C22.6658 24.375 22.8248 24.3092 22.942 24.1919C23.0592 24.0747 23.125 23.9158 23.125 23.75V22.5C23.125 22.3342 23.1909 22.1753 23.3081 22.0581C23.4253 21.9408 23.5843 21.875 23.75 21.875C23.9158 21.875 24.0748 21.9408 24.192 22.0581C24.3092 22.1753 24.375 22.3342 24.375 22.5V29.375C24.375 29.5408 24.4409 29.6997 24.5581 29.8169C24.6753 29.9342 24.8343 30 25 30C25.1658 30 25.3248 29.9342 25.442 29.8169C25.5592 29.6997 25.625 29.5408 25.625 29.375V22.5C25.625 22.0027 25.4275 21.5258 25.0759 21.1742C24.7242 20.8225 24.2473 20.625 23.75 20.625ZM18.125 1.25V1.875C18.125 2.04076 18.0592 2.19973 17.942 2.31694C17.8248 2.43415 17.6658 2.5 17.5 2.5H12.5C12.3343 2.5 12.1753 2.43415 12.0581 2.31694C11.9409 2.19973 11.875 2.04076 11.875 1.875V1.25H18.125ZM16.25 15C15.8632 15.0011 15.4862 15.1218 15.1706 15.3456C14.8551 15.5694 14.6165 15.8853 14.4875 16.25H11.8L11.3313 12.5H18.6688L18.2 16.25H18.0125C17.8836 15.8853 17.645 15.5694 17.3294 15.3456C17.0139 15.1218 16.6369 15.0011 16.25 15ZM21.25 20C20.9271 20.0012 20.6102 20.0874 20.3313 20.25C20.1039 19.8922 19.762 19.622 19.3613 19.4836C18.9606 19.3451 18.5248 19.3465 18.125 19.4875V17.5H18.75C18.9036 17.5011 19.0522 17.4457 19.1674 17.3442C19.2827 17.2428 19.3566 17.1024 19.375 16.95L19.925 12.5H20C20.1658 12.5 20.3248 12.4342 20.442 12.3169C20.5592 12.1997 20.625 12.0408 20.625 11.875C20.625 11.7092 20.5592 11.5503 20.442 11.4331C20.3248 11.3158 20.1658 11.25 20 11.25H18.4375L16.75 9C16.6506 8.86739 16.5025 8.77973 16.3384 8.75628C16.1743 8.73284 16.0076 8.77554 15.875 8.875C15.7424 8.97446 15.6548 9.12252 15.6313 9.28661C15.6079 9.45071 15.6506 9.61739 15.75 9.75L16.875 11.25H13.125L14.25 9.75C14.3495 9.61739 14.3922 9.45071 14.3687 9.28661C14.3453 9.12252 14.2576 8.97446 14.125 8.875C14.0594 8.82576 13.9847 8.78992 13.9051 8.76956C13.8256 8.74918 13.7429 8.74468 13.6616 8.75628C13.4975 8.77973 13.3495 8.86739 13.25 9L11.5625 11.25H10C9.83427 11.25 9.6753 11.3158 9.55809 11.4331C9.44088 11.5503 9.37503 11.7092 9.37503 11.875C9.37503 12.0408 9.44088 12.1997 9.55809 12.3169C9.6753 12.4342 9.83427 12.5 10 12.5H10.075L10.625 16.95C10.6435 17.1024 10.7173 17.2428 10.8326 17.3442C10.9479 17.4457 11.0965 17.5011 11.25 17.5H14.375V24.1313L12.575 23.5063C12.1773 23.3735 11.746 23.3828 11.3543 23.5325C10.9627 23.6821 10.6351 23.9629 10.4272 24.327C10.2194 24.6911 10.1442 25.116 10.2144 25.5293C10.2847 25.9426 10.4961 26.3188 10.8125 26.5938L11.875 27.5H9.37503C8.87775 27.5 8.40084 27.3025 8.04921 26.9508C7.69757 26.5992 7.50003 26.1223 7.50003 25.625V3.125C7.50003 2.62772 7.69757 2.15081 8.04921 1.79918C8.40084 1.44754 8.87775 1.25 9.37503 1.25H10.625V1.875C10.625 2.37228 10.8226 2.84919 11.1742 3.20083C11.5258 3.55246 12.0027 3.75 12.5 3.75H17.5C17.9973 3.75 18.4742 3.55246 18.8259 3.20083C19.1775 2.84919 19.375 2.37228 19.375 1.875V1.25H20.625C21.1223 1.25 21.5992 1.44754 21.9509 1.79918C22.3025 2.15081 22.5 2.62772 22.5 3.125V20.4875C22.1578 20.1764 21.7126 20.0028 21.25 20Z" fill="#E0171A"/>
</g>
<defs>
<clipPath id="clip0_1690:693">
<rect width="30" height="30" fill="white"/>
</clipPath>
</defs>
</svg>
