<svg width="30" height="30" viewBox="0 0 30 30" fill="none" xmlns="http://www.w3.org/2000/svg">
<g clip-path="url(#clip0_1690:696)">
<path d="M25.4125 19.1875L19.375 17.0563V15.625H21.875C22.0408 15.625 22.1997 15.5592 22.3169 15.4419C22.4342 15.3247 22.5 15.1658 22.5 15V12.8625C23.1082 12.5967 23.616 12.1441 23.9498 11.5703C24.2835 10.9965 24.4259 10.3314 24.3562 9.67123C24.2866 9.01111 24.0086 8.39031 23.5625 7.89879C23.1164 7.40727 22.5253 7.07058 21.875 6.9375V6.875C21.875 5.05164 21.1507 3.30295 19.8614 2.01364C18.572 0.724328 16.8234 0 15 0C13.1766 0 11.428 0.724328 10.1386 2.01364C8.84933 3.30295 8.125 5.05164 8.125 6.875V6.9375C7.36553 7.09172 6.69045 7.52263 6.23082 8.14658C5.77119 8.77053 5.5598 9.54301 5.63768 10.3141C5.71557 11.0851 6.07717 11.7997 6.65229 12.3191C7.22742 12.8386 7.97503 13.1258 8.75 13.125H9.51875C9.70681 13.9586 10.0855 14.7373 10.625 15.4V17.0563L4.5875 19.1875C3.2454 19.661 2.08334 20.5394 1.26165 21.7014C0.439951 22.8634 -0.000871405 24.2518 1.29326e-06 25.675V29.375C1.29326e-06 29.5408 0.0658493 29.6997 0.18306 29.8169C0.30027 29.9342 0.459241 30 0.625001 30C0.790762 30 0.949733 29.9342 1.06694 29.8169C1.18415 29.6997 1.25 29.5408 1.25 29.375V25.675C1.24939 24.5113 1.60973 23.376 2.28136 22.4257C2.95298 21.4753 3.90283 20.7567 5 20.3688L8.80625 19.025L10.6813 24.575C10.7156 24.6753 10.775 24.7653 10.8537 24.8363C10.9324 24.9074 11.0279 24.9573 11.1313 24.9813C11.1701 24.9917 11.2099 24.998 11.25 25C11.3323 25.0005 11.4138 24.9847 11.4899 24.9536C11.5661 24.9225 11.6354 24.8767 11.6938 24.8188L12.2688 24.2375L13.125 26.3125L12.5 29.25C12.4818 29.3322 12.4805 29.4172 12.496 29.5C12.5115 29.5827 12.5436 29.6615 12.5903 29.7315C12.637 29.8015 12.6973 29.8614 12.7677 29.9076C12.8381 29.9537 12.9171 29.9851 13 30H13.125C13.2712 30.003 13.4138 29.9545 13.528 29.8632C13.6422 29.7718 13.7208 29.6433 13.75 29.5L14.375 26.375C14.3995 26.2557 14.3886 26.1319 14.3438 26.0188L13.2438 23.275L15 21.5063L16.7688 23.275L15.6688 26.0188C15.6239 26.1319 15.613 26.2557 15.6375 26.375L16.2625 29.5C16.2917 29.6433 16.3703 29.7718 16.4845 29.8632C16.5987 29.9545 16.7413 30.003 16.8875 30H17.0125C17.0942 29.9837 17.1719 29.9512 17.2409 29.9044C17.3099 29.8577 17.3688 29.7976 17.4142 29.7277C17.4597 29.6578 17.4907 29.5796 17.5054 29.4975C17.5201 29.4155 17.5183 29.3313 17.5 29.25L16.875 26.3125L17.7063 24.2375L18.2813 24.8188C18.3426 24.8798 18.4159 24.9274 18.4966 24.9586C18.5773 24.9898 18.6636 25.0039 18.75 25C18.7977 25.0061 18.846 25.0061 18.8938 25C18.9971 24.976 19.0926 24.9262 19.1713 24.8551C19.25 24.784 19.3094 24.6941 19.3438 24.5938L21.2188 19.0438L25 20.3688C26.0972 20.7567 27.047 21.4753 27.7186 22.4257C28.3903 23.376 28.7506 24.5113 28.75 25.675V29.375C28.75 29.5408 28.8158 29.6997 28.9331 29.8169C29.0503 29.9342 29.2092 30 29.375 30C29.5408 30 29.6997 29.9342 29.8169 29.8169C29.9342 29.6997 30 29.5408 30 29.375V25.675C30.0009 24.2518 29.5601 22.8634 28.7384 21.7014C27.9167 20.5394 26.7546 19.661 25.4125 19.1875ZM15 19.8125L11.875 17.2063V16.55C12.8 17.168 13.8875 17.4979 15 17.4979C16.1125 17.4979 17.2 17.168 18.125 16.55V17.2063L15 19.8125ZM16.4875 5.6875C16.7181 6.30253 17.1062 6.84621 17.6129 7.26411C18.1197 7.68201 18.7273 7.95949 19.375 8.06875V11.875C19.3742 12.7692 19.0993 13.6417 18.5875 14.375H16.25C16.0842 14.375 15.9253 14.4408 15.8081 14.5581C15.6908 14.6753 15.625 14.8342 15.625 15C15.625 15.1658 15.6908 15.3247 15.8081 15.4419C15.9253 15.5592 16.0842 15.625 16.25 15.625H17.2438C16.5801 16.0214 15.8233 16.235 15.0504 16.2439C14.2774 16.2528 13.5159 16.0567 12.8433 15.6757C12.1708 15.2946 11.6112 14.7422 11.2215 14.0746C10.8319 13.4069 10.626 12.648 10.625 11.875V8.125C12.7929 7.9745 14.8519 7.1184 16.4875 5.6875ZM21.25 14.375H20C20.198 13.9772 20.349 13.5577 20.45 13.125H21.25V14.375ZM23.125 10C23.125 10.4973 22.9275 10.9742 22.5758 11.3258C22.2242 11.6775 21.7473 11.875 21.25 11.875H20.625V8.125H21.25C21.7473 8.125 22.2242 8.32255 22.5758 8.67418C22.9275 9.02581 23.125 9.50272 23.125 10ZM15 1.25C16.4918 1.25 17.9226 1.84263 18.9775 2.89752C20.0324 3.95242 20.625 5.38316 20.625 6.875H20C19.337 6.875 18.7011 6.61161 18.2322 6.14277C17.7634 5.67393 17.5 5.03804 17.5 4.375C17.4995 4.2458 17.4589 4.11994 17.384 4.01473C17.309 3.90952 17.2032 3.83014 17.0813 3.7875C16.9591 3.74497 16.8268 3.74137 16.7026 3.77719C16.5783 3.81301 16.4682 3.88649 16.3875 3.9875C15.5875 4.89312 14.6046 5.61876 13.5035 6.1165C12.4025 6.61424 11.2083 6.87276 10 6.875H9.375C9.375 5.38316 9.96763 3.95242 11.0225 2.89752C12.0774 1.84263 13.5082 1.25 15 1.25ZM8.75 11.875C8.25272 11.875 7.77581 11.6775 7.42418 11.3258C7.07255 10.9742 6.875 10.4973 6.875 10C6.875 9.50272 7.07255 9.02581 7.42418 8.67418C7.77581 8.32255 8.25272 8.125 8.75 8.125H9.375V11.875H8.75ZM12.0625 22.6813L11.525 23.2188L10 18.6063L11.1375 18.2063L14.0875 20.6688L12.0625 22.6813ZM18.475 23.2188L17.9375 22.6813L15.925 20.6688L18.875 18.2063L20.0125 18.6063L18.475 23.2188Z" fill="#E0171A"/>
</g>
<defs>
<clipPath id="clip0_1690:696">
<rect width="30" height="30" fill="white"/>
</clipPath>
</defs>
</svg>
