<svg width="30" height="30" viewBox="0 0 30 30" fill="none" xmlns="http://www.w3.org/2000/svg">
<g clip-path="url(#clip0_1690:688)">
<path d="M26.875 3.12496C26.1546 3.12482 25.4563 3.37358 24.8982 3.82915C24.3401 4.28472 23.9566 4.91911 23.8125 5.62497H21.25C21.25 1.76871 21.425 1.24996 20.7063 0.556211C20.4447 0.292548 20.1108 0.112477 19.7468 0.0388297C19.3829 -0.0348172 19.0052 0.0012773 18.6618 0.142537C18.3183 0.283796 18.0246 0.523857 17.8177 0.832283C17.6109 1.14071 17.5003 1.50361 17.5 1.87496V5.62497H3.125C2.95924 5.62497 2.80027 5.69081 2.68306 5.80802C2.56585 5.92523 2.5 6.08421 2.5 6.24997V13.75H0.625C0.45924 13.75 0.300269 13.8158 0.183058 13.933C0.065848 14.0502 0 14.2092 0 14.375L0 29.375C0 29.5407 0.065848 29.6997 0.183058 29.8169C0.300269 29.9341 0.45924 30 0.625 30H5.625C5.79076 30 5.94973 29.9341 6.06694 29.8169C6.18415 29.6997 6.25 29.5407 6.25 29.375V24.375H26.875C27.2854 24.375 27.6917 24.2942 28.0709 24.1371C28.45 23.9801 28.7945 23.7499 29.0847 23.4597C29.3749 23.1695 29.6051 22.825 29.7621 22.4459C29.9192 22.0667 30 21.6604 30 21.25V6.24997C30 5.83958 29.9192 5.43322 29.7621 5.05408C29.6051 4.67494 29.3749 4.33044 29.0847 4.04026C28.7945 3.75007 28.45 3.51989 28.0709 3.36284C27.6917 3.20579 27.2854 3.12496 26.875 3.12496ZM26.875 4.37496C27.3723 4.37496 27.8492 4.57251 28.2008 4.92414C28.5525 5.27577 28.75 5.75269 28.75 6.24997V18.75C28.2138 18.3334 27.554 18.1072 26.875 18.1072C26.196 18.1072 25.5362 18.3334 25 18.75V6.24997C25 5.75269 25.1975 5.27577 25.5492 4.92414C25.9008 4.57251 26.3777 4.37496 26.875 4.37496ZM19.375 14.225L18.75 12.975V3.74996H20V12.975L19.375 14.225ZM20 1.87496V2.49996H18.75V1.87496C18.75 1.7092 18.8158 1.55023 18.9331 1.43302C19.0503 1.31581 19.2092 1.24996 19.375 1.24996C19.5408 1.24996 19.6997 1.31581 19.8169 1.43302C19.9342 1.55023 20 1.7092 20 1.87496ZM1.25 28.75V15H5V16.25H3.75C3.58424 16.25 3.42527 16.3158 3.30806 16.433C3.19085 16.5502 3.125 16.7092 3.125 16.875C3.125 17.0407 3.19085 17.1997 3.30806 17.3169C3.42527 17.4341 3.58424 17.5 3.75 17.5H5V18.75H4.375C4.20924 18.75 4.05027 18.8158 3.93306 18.933C3.81585 19.0502 3.75 19.2092 3.75 19.375C3.75 19.5407 3.81585 19.6997 3.93306 19.8169C4.05027 19.9341 4.20924 20 4.375 20H5V21.25H3.75C3.58424 21.25 3.42527 21.3158 3.30806 21.433C3.19085 21.5502 3.125 21.7092 3.125 21.875C3.125 22.0407 3.19085 22.1997 3.30806 22.3169C3.42527 22.4341 3.58424 22.5 3.75 22.5H5V23.75H4.375C4.20924 23.75 4.05027 23.8158 3.93306 23.933C3.81585 24.0503 3.75 24.2092 3.75 24.375C3.75 24.5407 3.81585 24.6997 3.93306 24.8169C4.05027 24.9341 4.20924 25 4.375 25H5V26.25H3.75C3.58424 26.25 3.42527 26.3158 3.30806 26.433C3.19085 26.5503 3.125 26.7092 3.125 26.875C3.125 27.0407 3.19085 27.1997 3.30806 27.3169C3.42527 27.4341 3.58424 27.5 3.75 27.5H5V28.75H1.25ZM26.875 23.125H6.25V14.375C6.25 14.2092 6.18415 14.0502 6.06694 13.933C5.94973 13.8158 5.79076 13.75 5.625 13.75H3.75V6.87497H17.5C17.5 13.425 17.5 13.2 17.5625 13.3875C17.625 13.575 17.4188 13.1125 18.6125 15.5C17.6 16.5187 17.5562 16.675 17.3187 16.4312C17.0306 16.1569 16.6479 16.0038 16.25 16.0038C15.8521 16.0038 15.4694 16.1569 15.1813 16.4312C15.1612 16.4609 15.1342 16.4852 15.1026 16.5019C15.071 16.5187 15.0358 16.5275 15 16.5275C14.9642 16.5275 14.929 16.5187 14.8974 16.5019C14.8658 16.4852 14.8388 16.4609 14.8187 16.4312C14.5306 16.1569 14.1479 16.0038 13.75 16.0038C13.3521 16.0038 12.9694 16.1569 12.6813 16.4312C12.6612 16.4609 12.6342 16.4852 12.6026 16.5019C12.571 16.5187 12.5358 16.5275 12.5 16.5275C12.4642 16.5275 12.429 16.5187 12.3974 16.5019C12.3658 16.4852 12.3388 16.4609 12.3187 16.4312C11.3062 15.425 11.875 15.625 9.375 15.625C9.20924 15.625 9.05027 15.6908 8.93306 15.808C8.81585 15.9252 8.75 16.0842 8.75 16.25C8.75 16.4157 8.81585 16.5747 8.93306 16.6919C9.05027 16.8091 9.20924 16.875 9.375 16.875H10.9937L11.4313 17.3187C11.7194 17.5931 12.1021 17.7461 12.5 17.7461C12.8979 17.7461 13.2806 17.5931 13.5687 17.3187C13.5888 17.2891 13.6158 17.2648 13.6474 17.248C13.679 17.2312 13.7142 17.2225 13.75 17.2225C13.7858 17.2225 13.821 17.2312 13.8526 17.248C13.8842 17.2648 13.9112 17.2891 13.9313 17.3187C14.2194 17.5931 14.6021 17.7461 15 17.7461C15.3979 17.7461 15.7806 17.5931 16.0687 17.3187C16.4375 16.9437 16.45 17.7562 17.5 17.7562C18.2625 17.7562 18.4562 17.425 19.8187 16.0687C19.8666 16.0225 19.9048 15.9673 19.9312 15.9062C21.25 13.3125 21.25 13.35 21.25 13.125C21.25 12.9 21.25 12.7 21.25 6.87497H23.75V21.25C23.75 21.4157 23.8158 21.5747 23.9331 21.6919C24.0503 21.8091 24.2092 21.875 24.375 21.875C24.5408 21.875 24.6997 21.8091 24.8169 21.6919C24.9342 21.5747 25 21.4157 25 21.25C25 20.8791 25.11 20.5166 25.316 20.2083C25.522 19.8999 25.8149 19.6596 26.1575 19.5177C26.5001 19.3758 26.8771 19.3387 27.2408 19.411C27.6045 19.4834 27.9386 19.6619 28.2008 19.9242C28.463 20.1864 28.6416 20.5205 28.714 20.8842C28.7863 21.2479 28.7492 21.6249 28.6073 21.9675C28.4654 22.3101 28.225 22.603 27.9167 22.809C27.6084 23.015 27.2458 23.125 26.875 23.125Z" fill="#E0171A"/>
<path d="M20.625 20.625H15.625C15.4592 20.625 15.3003 20.6908 15.1831 20.8081C15.0658 20.9253 15 21.0842 15 21.25C15 21.4158 15.0658 21.5747 15.1831 21.6919C15.3003 21.8091 15.4592 21.875 15.625 21.875H20.625C20.7907 21.875 20.9497 21.8091 21.0669 21.6919C21.1841 21.5747 21.25 21.4158 21.25 21.25C21.25 21.0842 21.1841 20.9253 21.0669 20.8081C20.9497 20.6908 20.7907 20.625 20.625 20.625Z" fill="#E0171A"/>
<path d="M12.5 10.625C12.5 10.1305 12.3534 9.6472 12.0787 9.23608C11.804 8.82495 11.4135 8.50452 10.9567 8.3153C10.4999 8.12608 9.99723 8.07657 9.51228 8.17304C9.02732 8.2695 8.58187 8.5076 8.23223 8.85723C7.8826 9.20687 7.6445 9.65232 7.54804 10.1373C7.45157 10.6222 7.50108 11.1249 7.6903 11.5817C7.87952 12.0385 8.19995 12.429 8.61108 12.7037C9.0222 12.9784 9.50555 13.125 10 13.125C10.663 13.125 11.2989 12.8616 11.7678 12.3928C12.2366 11.9239 12.5 11.288 12.5 10.625ZM8.75 10.625C8.75 10.3778 8.82331 10.1361 8.96066 9.93054C9.09802 9.72498 9.29324 9.56476 9.52165 9.47015C9.75006 9.37554 10.0014 9.35079 10.2439 9.39902C10.4863 9.44725 10.7091 9.5663 10.8839 9.74112C11.0587 9.91593 11.1778 10.1387 11.226 10.3811C11.2742 10.6236 11.2495 10.8749 11.1549 11.1034C11.0602 11.3318 10.9 11.527 10.6945 11.6643C10.4889 11.8017 10.2472 11.875 10 11.875C9.66848 11.875 9.35054 11.7433 9.11612 11.5089C8.8817 11.2745 8.75 10.9565 8.75 10.625Z" fill="#E0171A"/>
</g>
<defs>
<clipPath id="clip0_1690:688">
<rect width="30" height="30" fill="white"/>
</clipPath>
</defs>
</svg>
